<?xml version="1.0" encoding="UTF-8" standalone="no"?>
<!-- Created with Inkscape (http://www.inkscape.org/) -->

<svg
   width="128"
   height="128"
   viewBox="0 0 33.866666 33.866666"
   version="1.1"
   id="svg5"
   xml:space="preserve"
   inkscape:version="1.2.2 (732a01da63, 2022-12-09)"
   sodipodi:docname="add_questions_pressed.svg"
   xmlns:inkscape="http://www.inkscape.org/namespaces/inkscape"
   xmlns:sodipodi="http://sodipodi.sourceforge.net/DTD/sodipodi-0.dtd"
   xmlns="http://www.w3.org/2000/svg"
   xmlns:svg="http://www.w3.org/2000/svg"><sodipodi:namedview
     id="namedview7"
     pagecolor="#ffffff"
     bordercolor="#000000"
     borderopacity="0.25"
     inkscape:showpageshadow="2"
     inkscape:pageopacity="0.0"
     inkscape:pagecheckerboard="0"
     inkscape:deskcolor="#d1d1d1"
     inkscape:document-units="mm"
     showgrid="false"
     inkscape:zoom="2.1770318"
     inkscape:cx="31.005519"
     inkscape:cy="171.56387"
     inkscape:window-width="1920"
     inkscape:window-height="1051"
     inkscape:window-x="-9"
     inkscape:window-y="-9"
     inkscape:window-maximized="1"
     inkscape:current-layer="layer1" /><defs
     id="defs2"><inkscape:path-effect
       effect="bspline"
       id="path-effect3249"
       is_visible="true"
       lpeversion="1"
       weight="30"
       steps="3"
       helper_size="0"
       apply_no_weight="true"
       apply_with_weight="true"
       only_selected="false" /><inkscape:path-effect
       effect="fillet_chamfer"
       id="path-effect3247"
       is_visible="true"
       lpeversion="1"
       nodesatellites_param="C,0,0,1,0,2.6458333,0,4 @ C,0,0,1,0,2.6458333,0,4 @ C,0,0,1,0,2.6458333,0,4 @ C,0,0,1,0,2.6458333,0,4"
       unit="px"
       method="auto"
       mode="C"
       radius="10"
       chamfer_steps="4"
       flexible="false"
       use_knot_distance="true"
       apply_no_radius="true"
       apply_with_radius="true"
       only_selected="false"
       hide_knots="false" /></defs><g
     inkscape:label="Ebene 1"
     inkscape:groupmode="layer"
     id="layer1"><g
       aria-label="+"
       transform="scale(0.99491084,1.0051152)"
       id="text233"
       style="font-size:52.9167px;stroke-width:5"><path
         d="M 14.882656,14.477201 V 7.8109368 q 0,-0.8784998 0.645956,-1.4986174 0.645956,-0.6201176 1.576132,-0.6201176 0.8785,0 1.498618,0.6201176 0.620117,0.6201176 0.620117,1.4986174 v 6.6662642 h 6.666264 q 0.904338,0 1.550294,0.645955 0.671794,0.620118 0.671794,1.524456 0,0.904338 -0.671794,1.550294 -0.645956,0.620118 -1.550294,0.620118 h -6.614587 v 6.666263 q 0,0.930177 -0.671794,1.576132 -0.645956,0.645956 -1.550294,0.645956 -0.904338,0 -1.550294,-0.645956 -0.620118,-0.645955 -0.620118,-1.576132 V 18.818024 H 8.2163924 q -0.8784999,0 -1.5244556,-0.620118 Q 6.045981,17.55195 6.045981,16.647612 q 0,-0.8785 0.6459558,-1.524456 0.6459557,-0.645955 1.5244556,-0.645955 z"
         style="font-family:'OCR A Extended';-inkscape-font-specification:'OCR A Extended';stroke:#000000"
         id="path3429" /></g><path
       id="rect389"
       style="fill:none;stroke:#000000;stroke-width:1.99032;stroke-linecap:round;stroke-linejoin:round;stroke-miterlimit:40"
       d="m 5.2958672,5.2418988 c 5.0287208,-5.02872224 18.4383118,-5.02872224 23.4667848,0 5.028474,5.0287222 5.028474,18.4383152 0,23.4667872 -5.028473,5.028473 -18.438064,5.028473 -23.4667848,0 -5.02872074,-5.028472 -5.02872074,-18.438065 0,-23.4667872 z"
       inkscape:path-effect="#path-effect3249"
       inkscape:original-d="m 0.26714646,0.21317656 c 10.05744154,2.501e-4 23.46703254,2.501e-4 33.52397954,0 2.48e-4,10.05744444 2.48e-4,23.46703744 0,33.52398244 -10.056947,2.51e-4 -23.466538,2.51e-4 -33.52397954,0 2.475e-4,-10.056945 2.475e-4,-23.466538 0,-33.52398244 z" /></g></svg>
