<?xml version="1.0" encoding="UTF-8" standalone="no"?>
<!-- Created with Inkscape (http://www.inkscape.org/) -->

<svg
   width="128"
   height="128"
   viewBox="0 0 33.866666 33.866666"
   version="1.1"
   id="svg137"
   inkscape:version="1.2.2 (732a01da63, 2022-12-09)"
   sodipodi:docname="submit-question-pressed.svg"
   xmlns:inkscape="http://www.inkscape.org/namespaces/inkscape"
   xmlns:sodipodi="http://sodipodi.sourceforge.net/DTD/sodipodi-0.dtd"
   xmlns="http://www.w3.org/2000/svg"
   xmlns:svg="http://www.w3.org/2000/svg">
  <sodipodi:namedview
     id="namedview139"
     pagecolor="#ffffff"
     bordercolor="#000000"
     borderopacity="0.25"
     inkscape:showpageshadow="2"
     inkscape:pageopacity="0.0"
     inkscape:pagecheckerboard="0"
     inkscape:deskcolor="#d1d1d1"
     inkscape:document-units="mm"
     showgrid="false"
     inkscape:zoom="2.3063834"
     inkscape:cx="-100.80718"
     inkscape:cy="94.303486"
     inkscape:window-width="1920"
     inkscape:window-height="1051"
     inkscape:window-x="-9"
     inkscape:window-y="1341"
     inkscape:window-maximized="1"
     inkscape:current-layer="layer2" />
  <defs
     id="defs134" />
  <g
     inkscape:label="Ebene 1"
     inkscape:groupmode="layer"
     id="layer1">
    <circle
       style="fill:#000000;stroke:#000000;stroke-width:1.1316;stroke-linecap:round;stroke-linejoin:round;stroke-miterlimit:40;stroke-dasharray:none;fill-opacity:1"
       id="path1981"
       cx="16.999998"
       cy="16.999998"
       r="15.934197" />
  </g>
  <g
     inkscape:groupmode="layer"
     id="layer2"
     inkscape:label="Ebene 2">
    <g
       aria-label="+"
       id="text540"
       style="font-size:52.9167px;line-height:0;font-family:'OCR A Extended';-inkscape-font-specification:'OCR A Extended';text-align:center;text-anchor:middle;fill:#ffffff;stroke:#000000;stroke-linecap:round;stroke-linejoin:round;stroke-miterlimit:40">
      <path
         d="M 14.836675,14.784997 V 8.1187333 q 0,-0.8784999 0.645955,-1.4986174 0.645956,-0.6201176 1.576132,-0.6201176 0.8785,0 1.498618,0.6201176 0.620117,0.6201175 0.620117,1.4986174 v 6.6662637 h 6.666264 q 0.904338,0 1.550294,0.645956 0.671794,0.620117 0.671794,1.524456 0,0.904338 -0.671794,1.550293 -0.645956,0.620118 -1.550294,0.620118 h -6.614587 v 6.666264 q 0,0.930176 -0.671794,1.576132 -0.645956,0.645956 -1.550294,0.645956 -0.904338,0 -1.550294,-0.645956 -0.620117,-0.645956 -0.620117,-1.576132 V 19.12582 H 8.1704107 q -0.8784998,0 -1.5244556,-0.620118 -0.6459558,-0.645955 -0.6459558,-1.550293 0,-0.8785 0.6459558,-1.524456 0.6459558,-0.645956 1.5244556,-0.645956 z"
         id="path2737" />
    </g>
  </g>
</svg>
